<svg xmlns="http://www.w3.org/2000/svg" width="1440" height="1200" viewBox="0 0 1440 1200" fill="none">
  <path fill="url(#a)" d="M22 262.796c-8.936-3.419-22.5-10.532-22.5-10.532V1200s222.037-120.86 369.5-173.11c97.467-34.53 152.936-50.76 252.5-70.21 84.081-16.42 131.671-22.83 216.5-27.38 62.634-3.36 97.88-3.87 160.5 0 57.75 3.57 89.87 11.17 147.5 17.55 36.31 4.03 56.72 5.32 93 9.83 38.13 4.74 59.51 7.46 97.5 14.05 40.34 6.99 103 21.06 103 21.06V0s-60.9 40.465-100.5 64.593c-48.13 29.33-75.38 45.031-124.5 70.913-62.32 32.835-97.89 48.983-161.5 76.529-69.9 30.269-109.26 46.923-180.5 70.21-71.614 23.409-112.303 33.665-185 49.147-57.182 12.178-89.417 17.698-147 25.276-51.443 6.77-80.349 10.755-132 12.638-31.817 1.159-49.672 0-81.5 0-30.07 0-46.943 1.268-77 0-29.524-1.246-46.08-2.628-75.5-6.319-24.076-3.021-37.502-5.757-61.5-9.83-14.066-2.387-21.974-3.504-36-6.319-12.33-2.474-19.262-3.765-31.5-7.021-9.219-2.452-14.447-3.556-23.5-7.021Z"/>
  <path stroke="url(#b)" stroke-opacity=".1" d="M234.5 310.8v981"/>
  <path stroke="url(#c)" stroke-opacity=".1" d="M438.2 310.8v886"/>
  <path stroke="url(#d)" stroke-opacity=".1" d="M641.9 310.8v886"/>
  <path stroke="url(#e)" stroke-opacity=".1" d="M845.6 310.8v886"/>
  <path stroke="url(#f)" stroke-opacity=".1" d="M1049.3 158.2v1057"/>
  <path stroke="url(#g)" stroke-opacity=".1" d="M1253 53.7v1173"/>
  <path stroke="url(#h)" stroke-opacity=".1" d="M1.4 430.2H1439.2"/>
  <path stroke="url(#i)" stroke-opacity=".1" d="M0.34 310.8H1438.7"/>
  <path stroke="url(#j)" stroke-opacity=".1" d="M1.01 597.2H1438.9"/>
  <path stroke="url(#k)" stroke-opacity=".1" d="M0.68 763.9H1439.3"/>
  <path stroke="url(#l)" stroke-opacity=".1" d="M0.34 930.5H1438.7"/>
  <path stroke="url(#m)" stroke-opacity=".1" d="M0 1097.2H1438.9"/>
  <defs>
    <linearGradient id="a" x1="1440" x2="600" y1="50" y2="-600" gradientUnits="userSpaceOnUse">
      <stop stop-color="#12255B"/>
      <stop offset="1" stop-color="#1E3D97"/>
    </linearGradient>
    <linearGradient id="b" x1="234.5" x2="234.5" y1="310.8" y2="1291.8" gradientUnits="userSpaceOnUse">
      <stop stop-color="#E6E6E6" stop-opacity=".2"/>
      <stop offset=".5" stop-color="#E6E6E6"/>
      <stop offset="1" stop-color="#EDEDED" stop-opacity=".2"/>
    </linearGradient>
    <linearGradient id="c" x1="438.2" x2="438.2" y1="310.8" y2="1196.8" gradientUnits="userSpaceOnUse">
      <stop stop-color="#E6E6E6" stop-opacity=".2"/>
      <stop offset=".5" stop-color="#E6E6E6"/>
      <stop offset="1" stop-color="#EDEDED" stop-opacity=".2"/>
    </linearGradient>
    <linearGradient id="d" x1="641.9" x2="641.9" y1="310.8" y2="1196.8" gradientUnits="userSpaceOnUse">
      <stop stop-color="#E6E6E6" stop-opacity=".2"/>
      <stop offset=".5" stop-color="#E6E6E6"/>
      <stop offset="1" stop-color="#EDEDED" stop-opacity=".2"/>
    </linearGradient>
    <linearGradient id="e" x1="845.6" x2="845.6" y1="310.8" y2="1196.8" gradientUnits="userSpaceOnUse">
      <stop stop-color="#E6E6E6" stop-opacity=".2"/>
      <stop offset=".5" stop-color="#E6E6E6"/>
      <stop offset="1" stop-color="#EDEDED" stop-opacity=".2"/>
    </linearGradient>
    <linearGradient id="f" x1="1049.3" x2="1049.3" y1="158.2" y2="1215.2" gradientUnits="userSpaceOnUse">
      <stop stop-color="#E6E6E6" stop-opacity=".2"/>
      <stop offset=".5" stop-color="#E6E6E6"/>
      <stop offset="1" stop-color="#EDEDED" stop-opacity=".2"/>
    </linearGradient>
    <linearGradient id="g" x1="1253" x2="1253" y1="53.7" y2="1226.7" gradientUnits="userSpaceOnUse">
      <stop stop-color="#E6E6E6" stop-opacity=".2"/>
      <stop offset=".5" stop-color="#E6E6E6"/>
      <stop offset="1" stop-color="#EDEDED" stop-opacity=".2"/>
    </linearGradient>
    <linearGradient id="h" x1="1.4" x2="1439.2" y1="430.7" y2="430.7" gradientUnits="userSpaceOnUse">
      <stop stop-color="#EDEDED" stop-opacity=".2"/>
      <stop offset=".5" stop-color="#EDEDED"/>
      <stop offset="1" stop-color="#EDEDED" stop-opacity=".2"/>
    </linearGradient>
    <linearGradient id="i" x1="0.34" x2="1438.7" y1="311.3" y2="311.3" gradientUnits="userSpaceOnUse">
      <stop stop-color="#EDEDED" stop-opacity=".2"/>
      <stop offset=".5" stop-color="#EDEDED"/>
      <stop offset="1" stop-color="#EDEDED" stop-opacity=".2"/>
    </linearGradient>
    <linearGradient id="j" x1="1.01" x2="1438.9" y1="597.7" y2="597.7" gradientUnits="userSpaceOnUse">
      <stop stop-color="#EDEDED" stop-opacity=".2"/>
      <stop offset=".5" stop-color="#EDEDED"/>
      <stop offset="1" stop-color="#EDEDED" stop-opacity=".2"/>
    </linearGradient>
    <linearGradient id="k" x1="0.68" x2="1439.3" y1="764.4" y2="764.4" gradientUnits="userSpaceOnUse">
      <stop stop-color="#EDEDED" stop-opacity=".2"/>
      <stop offset=".505" stop-color="#EDEDED"/>
      <stop offset="1" stop-color="#EDEDED" stop-opacity=".2"/>
    </linearGradient>
    <linearGradient id="l" x1="0.34" x2="1438.7" y1="931" y2="931" gradientUnits="userSpaceOnUse">
      <stop stop-color="#EDEDED" stop-opacity=".2"/>
      <stop offset=".5" stop-color="#EDEDED"/>
      <stop offset="1" stop-color="#EDEDED" stop-opacity=".2"/>
    </linearGradient>
    <linearGradient id="m" x1="0" x2="1438.9" y1="1097.7" y2="1097.7" gradientUnits="userSpaceOnUse">
      <stop stop-color="#EDEDED" stop-opacity=".2"/>
      <stop offset=".5" stop-color="#EDEDED"/>
      <stop offset="1" stop-color="#EDEDED" stop-opacity=".2"/>
    </linearGradient>
  </defs>
</svg>