<svg xmlns="http://www.w3.org/2000/svg" width="1440" height="1200" viewBox="0 0 1440 1200" fill="none">
  <path fill="url(#a)" d="M22 262.796c-8.936-3.419-22.5-10.532-22.5-10.532V1200s222.037-120.86 369.5-173.11c97.467-34.53 152.936-50.76 252.5-70.21 84.081-16.42 131.671-22.83 216.5-27.38 62.634-3.36 97.88-3.87 160.5 0 57.75 3.57 89.87 11.17 147.5 17.55 36.31 4.03 56.72 5.32 93 9.83 38.13 4.74 59.51 7.46 97.5 14.05 40.34 6.99 103 21.06 103 21.06V0s-60.9 40.465-100.5 64.593c-48.13 29.33-75.38 45.031-124.5 70.913-62.32 32.835-97.89 48.983-161.5 76.529-69.9 30.269-109.26 46.923-180.5 70.21-71.614 23.409-112.303 33.665-185 49.147-57.182 12.178-89.417 17.698-147 25.276-51.443 6.77-80.349 10.755-132 12.638-31.817 1.159-49.672 0-81.5 0-30.07 0-46.943 1.268-77 0-29.524-1.246-46.08-2.628-75.5-6.319-24.076-3.021-37.502-5.757-61.5-9.83-14.066-2.387-21.974-3.504-36-6.319-12.33-2.474-19.262-3.765-31.5-7.021-9.219-2.452-14.447-3.556-23.5-7.021Z"/>
  <defs>
    <linearGradient id="a" x1="1440" x2="600" y1="50" y2="-600" gradientUnits="userSpaceOnUse">
      <stop stop-color="#12255B"/>
      <stop offset="1" stop-color="#1E3D97"/>
    </linearGradient>
  </defs>
</svg>